<svg width="57" height="57" viewBox="0 0 57 57" fill="none" xmlns="http://www.w3.org/2000/svg">
<path d="M24.3141 0.890624C21.2859 2.1375 20.4844 7.65937 22.7109 12.6469C23.1562 13.8047 22.8 14.4281 21.1078 15.0516C18.7922 15.9422 17.8125 17.6344 17.8125 20.9297C17.8125 22.7109 18.3469 23.0672 21.1969 23.3344C23.8687 23.5125 24.5812 23.9578 24.7594 25.5609C25.0266 27.5203 25.3828 27.6094 35.7141 27.6094C46.2234 27.6094 46.3125 27.6094 46.8469 25.3828C47.2922 23.5125 47.9156 23.1562 50.8547 23.1562C53.8828 23.1562 54.3281 22.8891 54.3281 21.1969C54.3281 19.6828 54.0609 19.5047 53.2594 20.3062C51.9234 21.6422 46.6687 21.7312 45.8672 20.4844C44.8875 18.8812 49.1625 16.0312 50.9437 17.0109C52.0125 17.6344 52.5469 17.5453 52.5469 16.9219C52.5469 16.3875 51.5672 15.4969 50.3203 14.9625C48.0047 13.8937 47.5594 12.9141 48.9844 12.0234C49.5187 11.7562 49.875 9.52969 49.875 7.125C49.875 3.38437 49.5187 2.49375 47.5594 1.15781C45.4219 -0.267189 44.9766 -0.267189 42.75 1.06875C41.2359 1.95937 39.8109 2.1375 39.0984 1.69219C37.3172 0.623436 33.4875 0.712499 32.3297 1.87031C31.6172 2.58281 30.8156 2.49375 29.3016 1.425C26.9859 -0.178126 26.9859 -0.178126 24.3141 0.890624ZM28.5 2.67187C30.1922 3.74062 28.9453 4.9875 25.65 5.78906C22.9781 6.50156 22.1766 4.89844 24.225 2.85C25.4719 1.60312 26.7187 1.51406 28.5 2.67187ZM47.1141 2.93906C47.8266 3.91875 47.5594 4.36406 45.7781 5.16562C42.9281 6.50156 41.8594 6.50156 41.8594 5.07656C41.8594 2.22656 45.3328 0.890624 47.1141 2.93906ZM39.0094 3.74062C40.3453 5.07656 40.3453 5.87812 39.0094 5.96719C38.3859 6.05625 36.5156 6.50156 35.0016 6.94687C31.7062 8.01562 31.0828 7.48125 32.1516 4.63125C32.9531 2.40469 37.1391 1.87031 39.0094 3.74062ZM29.0344 11.2219C28.0547 13.6266 23.1562 12.1125 23.1562 9.2625C23.1562 8.72812 24.4922 7.92656 26.0953 7.39219C28.5891 6.67969 28.9453 6.85781 29.2125 8.28281C29.3906 9.17344 29.3016 10.5094 29.0344 11.2219ZM48.0937 8.81719C48.0937 10.5984 47.5594 11.6672 46.4016 12.0234C42.0375 13.3594 40.0781 9.08437 44.3531 7.39219C47.9156 5.96719 48.0937 5.96719 48.0937 8.81719ZM40.0781 9.975C40.0781 12.3797 37.5844 15.1406 35.5359 15.1406C33.6656 15.1406 30.7266 11.2219 31.6172 9.79687C31.8844 9.35156 33.0422 8.90625 34.1109 8.90625C35.1797 8.90625 36.6937 8.55 37.4062 8.10469C39.0984 6.94687 40.0781 7.65937 40.0781 9.975ZM28.9453 15.1406C29.6578 16.2984 27.1641 17.2781 25.2937 16.5656C23.5125 15.8531 24.4922 14.25 26.7187 14.25C27.6094 14.25 28.6781 14.6953 28.9453 15.1406ZM46.7578 15.5859C46.7578 16.0312 45.8672 16.5656 44.7984 16.7437C43.3734 16.9219 42.75 16.5656 42.75 15.5859C42.75 14.6062 43.3734 14.25 44.7984 14.4281C45.8672 14.6062 46.7578 15.0516 46.7578 15.5859ZM24.225 18.0797C27.1641 19.5937 26.3625 21.375 22.6219 21.375C20.3062 21.375 19.5937 21.0187 19.5937 19.7719C19.5937 16.7437 20.8406 16.2984 24.225 18.0797ZM38.1187 18.4359C37.7625 20.2172 35.0016 21.1078 33.6656 19.7719C32.3297 18.4359 33.6656 16.9219 36.1594 16.9219C37.8516 16.9219 38.3859 17.3672 38.1187 18.4359ZM32.4187 20.9297C34.6453 22.6219 37.7625 22.6219 39.1875 20.9297C40.7906 19.0594 42.3937 19.2375 43.9969 21.5531C46.7578 25.4719 46.0453 25.8281 36.0703 25.8281C26.8969 25.8281 26.7187 25.8281 26.7187 23.7797C26.7187 21.6422 28.2328 19.5937 29.8359 19.5937C30.2812 19.5937 31.5281 20.2172 32.4187 20.9297Z" fill="#C3073F"/>
<path d="M47.2031 29.5688C46.1344 30.7266 44.6203 32.6859 43.8188 34.0219C42.0375 37.05 40.1672 37.3172 40.7016 34.4672C41.236 31.7063 39.7219 30.6375 33.4875 29.4797C24.9375 27.8766 22.0875 28.2328 17.7235 31.0828C15.1406 32.8641 13.5375 33.4875 12.825 32.8641C11.7563 31.9734 1.06878 38.475 0.267213 40.6125C-0.356225 42.3938 9.7969 56.1094 11.7563 56.1094C13.9828 56.1094 23.1563 49.2516 23.1563 47.6484C23.1563 45.9563 25.9172 44.5313 29.3016 44.5313C30.7266 44.5313 32.2406 44.0859 32.5969 43.5516C33.0422 42.75 32.0625 42.6609 28.8563 43.1063C26.4516 43.4625 23.6906 43.8188 22.8 43.9078C21.6422 43.9969 20.0391 42.6609 17.9906 39.8109C14.5172 35.0016 14.7844 34.2 20.4844 31.35C23.6016 29.8359 24.4922 29.7469 30.7266 30.7266C37.9406 31.8844 39.7219 32.8641 38.9203 35.0906C38.475 36.2484 37.4063 36.4266 33.3985 35.9813C30.3703 35.625 28.5 35.7141 28.5 36.2484C28.5 37.1391 36.4266 38.2969 42.0375 38.2969C43.5516 38.2969 46.3125 37.1391 48.5391 35.5359C50.9438 33.8438 52.9922 32.9531 53.8828 33.3094C56.1094 34.1109 55.1297 35.7141 49.875 39.4547C45.6891 42.3938 44.5313 42.75 39.9 42.75C36.6047 42.75 34.8235 43.1063 35.1797 43.6406C35.4469 44.0859 37.8516 44.5313 40.5235 44.5313C44.7094 44.5313 46.0453 44.0859 50.9438 40.7016C54.061 38.5641 56.7328 36.1594 56.8219 35.2688C57.1781 33.4875 52.0125 27.6094 50.1422 27.6094C49.5188 27.6094 48.1828 28.5 47.2031 29.5688ZM51.6563 30.1922C51.6563 31.1719 46.1344 35.7141 45.6 35.1797C45.4219 35.0016 46.1344 33.5766 47.2031 32.1516C48.9844 29.5688 51.6563 28.4109 51.6563 30.1922ZM16.3875 40.5234C21.286 47.3813 21.8203 48.6281 20.2172 49.2516C18.6141 49.875 9.44065 36.9609 10.1531 35.0016C10.8656 33.2203 11.7563 33.9328 16.3875 40.5234ZM13.1813 44.2641L17.7235 50.6766L14.9625 52.9031C13.3594 54.0609 11.8453 54.9516 11.4 54.6844C11.0438 54.4172 8.72815 51.3891 6.2344 47.8266L1.69221 41.4141L4.54221 39.0094C6.14534 37.5844 7.74846 36.7828 8.01565 37.2281C8.3719 37.5844 10.6875 40.7016 13.1813 44.2641Z" fill="#C3073F"/>
</svg>
