<svg width="172" height="172" viewBox="0 0 172 172" fill="none" xmlns="http://www.w3.org/2000/svg">
<path d="M22.2727 14.2438C18.8125 15.3524 16.3602 17.5359 14.8148 20.8281C14.0086 22.575 13.9414 23.0453 13.8406 28.6219L13.7063 34.568L12.1273 35.1055C7.25625 36.718 2.78828 41.3539 0.940625 46.6281L0.167969 48.8789V96.0781V143.277L0.940625 145.495C2.85547 151.071 7.15547 155.371 12.6984 157.286L14.9492 158.059H86H157.051L159.302 157.286C164.845 155.371 169.145 151.071 171.059 145.495L171.832 143.277V96.0781V48.8789L171.059 46.6281C169.145 41.1188 165.046 36.9867 159.369 34.8703C157.42 34.1313 156.984 34.0977 138.608 33.9297L119.829 33.7617L117.948 28.2188C115.831 21.9703 114.991 20.3242 112.707 18.0734C110.792 16.1922 108.609 14.9828 105.988 14.2774C103.032 13.5383 68.968 13.5383 66.0117 14.2774C62.182 15.2852 58.7891 17.8047 56.8406 21.1305C56.3367 21.9703 55.0938 25.1617 54.0523 28.2188L52.1711 33.7617L48.1063 33.8625L44.075 33.9633L43.9406 28.3195C43.8398 23.0453 43.7727 22.5414 42.9664 20.7945C41.7234 18.1406 39.943 16.3266 37.3563 15.05C35.1391 13.9414 35.1055 13.9414 29.3945 13.8742C25.3297 13.807 23.2805 13.9078 22.2727 14.2438ZM33.3922 24.3891C33.8289 24.7922 33.9297 25.7664 33.9297 29.4281V33.9297H28.8906H23.8516V29.4281C23.8516 25.7664 23.9523 24.7922 24.3891 24.3891C24.7922 23.9524 25.7328 23.8516 28.8906 23.8516C32.0484 23.8516 32.9891 23.9524 33.3922 24.3891ZM104.275 24.3219C104.88 24.557 105.686 25.1953 106.089 25.6656C106.459 26.1695 107.802 29.6297 109.045 33.3586C111.8 41.7234 112.17 42.4625 113.883 43.3359C115.159 43.9742 115.831 44.0078 134.98 44.0078C157.32 44.0078 156.849 43.9742 159.402 46.5274C162.09 49.2149 161.922 45.6203 161.922 96.0781C161.922 146.536 162.09 142.941 159.402 145.629C156.681 148.384 163.165 148.148 86 148.148C8.83516 148.148 15.3188 148.384 12.5977 145.629C9.91016 142.941 10.0781 146.536 10.0781 96.0781C10.0781 45.6203 9.91016 49.2149 12.5977 46.5274C15.1508 43.9742 14.6805 44.0078 37.0203 44.0078C56.1688 44.0078 56.8406 43.9742 58.1172 43.3359C59.8305 42.4625 60.2 41.7234 62.9547 33.3586C64.1977 29.6297 65.5414 26.1695 65.9109 25.6656C67.3219 23.8852 67.3219 23.8852 85.9328 23.8516C99.8406 23.8516 103.368 23.9524 104.275 24.3219Z" fill="black"/>
<path d="M81.2969 47.5687C70.4797 48.9125 61.443 53.3133 53.918 60.9391C47.2328 67.6914 43.4031 74.8805 41.4211 84.3203C40.6148 88.2844 40.6148 97.1531 41.4211 101.117C43.4031 110.557 47.2664 117.78 53.918 124.498C60.6703 131.318 68.0609 135.316 77.6016 137.298C81.532 138.104 90.3672 138.104 94.4656 137.298C103.536 135.484 111.061 131.452 117.78 124.801C124.566 118.116 128.597 110.658 130.579 101.117C131.385 97.1531 131.385 88.2844 130.579 84.3203C129.269 78.1055 126.884 72.3609 123.457 67.1875C121.341 63.9961 114.79 57.4117 111.666 55.3625C106.257 51.768 100.412 49.3156 94.6672 48.207C91.9461 47.6695 83.6484 47.2664 81.2969 47.5687ZM94.0625 58.3859C100.714 60.1328 106.324 63.2906 110.893 67.8258C115.428 72.3609 118.485 77.8031 120.366 84.6562C121.341 88.318 121.341 97.1195 120.366 100.781C118.485 107.634 115.428 113.077 110.893 117.612C106.358 122.147 100.916 125.204 94.0625 127.085C90.4008 128.059 81.5992 128.059 77.9375 127.085C71.0844 125.204 65.6422 122.147 61.107 117.612C48.1398 104.611 47.3 84.018 59.1922 69.875C64.332 63.7609 72.7641 59.0242 80.625 57.8148C83.9172 57.3109 91.0727 57.6133 94.0625 58.3859Z" fill="black"/>
<path d="M80.793 68.0946C69.2703 70.5469 60.8047 80.9946 60.8047 92.7188C60.8047 104.51 69.3711 114.958 81.0281 117.377C89.2922 119.09 97.7914 116.503 103.771 110.423C108.407 105.72 110.658 100.714 111.095 94.0625C112.002 79.7852 100.177 67.3891 85.7648 67.5571C84.3203 67.5571 82.1031 67.7922 80.793 68.0946ZM89.0906 77.9711C92.0133 78.5758 94.3984 79.9196 96.582 82.1032C105.249 90.8039 100.546 105.484 88.3852 107.567C83.6484 108.373 78.9453 106.828 75.418 103.301C69.4383 97.3547 69.4383 88.0493 75.3844 82.1368C79.1133 78.4078 84.0516 76.9297 89.0906 77.9711Z" fill="black"/>
<path d="M23.1125 54.7914C21.668 55.5305 20.4922 57.5125 20.4922 59.125C20.4922 60.8047 21.668 62.7195 23.1797 63.4922C24.3555 64.0969 25.1617 64.1641 30.5703 64.1641C37.625 64.1641 38.7672 63.8281 39.9766 61.4766C40.8164 59.7969 40.8164 58.4531 39.9766 56.7734C38.7672 54.3883 37.6586 54.0859 30.5031 54.0859C25.0609 54.1195 24.2211 54.1867 23.1125 54.7914Z" fill="black"/>
<path d="M144.05 54.7914C142.605 55.5305 141.43 57.5125 141.43 59.125C141.43 59.6961 141.732 60.7711 142.102 61.4766C142.874 62.9883 144.789 64.1641 146.469 64.1641C148.148 64.1641 150.063 62.9883 150.836 61.4766C151.205 60.7711 151.508 59.6961 151.508 59.125C151.508 57.4453 150.332 55.5305 148.82 54.7578C147.174 53.918 145.663 53.918 144.05 54.7914Z" fill="black"/>
</svg>
