<?xml version="1.0" standalone="no"?>
<!DOCTYPE svg PUBLIC "-//W3C//DTD SVG 20010904//EN"
 "http://www.w3.org/TR/2001/REC-SVG-20010904/DTD/svg10.dtd">
<svg version="1.0" xmlns="http://www.w3.org/2000/svg"
 width="24.000000pt" height="24.000000pt" viewBox="0 0 24.000000 24.000000"
 preserveAspectRatio="xMidYMid meet">

<g transform="translate(0.000000,24.000000) scale(0.100000,-0.100000)"
fill="#fff" stroke="none">
<path d="M172 217 c-9 -11 -7 -19 12 -36 21 -20 24 -20 36 -5 10 11 11 20 3
32 -13 22 -37 26 -51 9z"/>
<path d="M78 122 c-37 -37 -70 -80 -74 -96 -7 -28 -6 -29 22 -22 16 4 59 37
97 74 l68 68 -24 22 -23 22 -66 -68z"/>
</g>
</svg>
