<svg width="26" height="26" viewBox="0 0 26 26" fill="none" xmlns="http://www.w3.org/2000/svg">
<path d="M25.2683 13.1773C25.3152 13.064 25.3152 12.9363 25.2683 12.8226C25.2446 12.7655 25.2103 12.7139 25.1675 12.6708L19.5966 7.10026C19.415 6.91873 19.1216 6.91873 18.9401 7.10026C18.7585 7.2818 18.7585 7.57523 18.9401 7.75676L23.719 12.5357H9.51833C9.26205 12.5357 9.05405 12.7432 9.05405 12.9999C9.05405 13.2567 9.26205 13.4642 9.51833 13.4642H23.719L18.9401 18.2431C18.7585 18.4247 18.7585 18.7181 18.9401 18.8996C19.0306 18.9902 19.1495 19.0357 19.2683 19.0357C19.3872 19.0357 19.506 18.9902 19.5966 18.8996L25.1675 13.3287C25.2103 13.2859 25.2446 13.2344 25.2683 13.1773Z" fill="white"/>
<path d="M16.9469 15.3214C16.6906 15.3214 16.4826 15.529 16.4826 15.7857V25.0714H1.62547V0.928571H16.4826V10.2143C16.4826 10.471 16.6906 10.6786 16.9469 10.6786C17.2032 10.6786 17.4112 10.471 17.4112 10.2143V0.464286C17.4112 0.207536 17.2032 0 16.9469 0H1.16119C0.904899 0 0.696899 0.207536 0.696899 0.464286V25.5357C0.696899 25.7925 0.904899 26 1.16119 26H16.9469C17.2032 26 17.4112 25.7925 17.4112 25.5357V15.7857C17.4112 15.529 17.2032 15.3214 16.9469 15.3214Z" fill="white"/>
</svg>
