<svg width="57" height="50" viewBox="0 0 57 50" fill="none" xmlns="http://www.w3.org/2000/svg">
<path d="M31.2143 0C30.8637 0 30.5133 0.126771 30.2645 0.379236L5.92601 25.0287C5.38316 25.5795 5.38316 26.4522 5.92601 26.9571L9.77125 30.8589C10.0427 31.1343 10.3592 31.2713 10.7211 31.2713C11.083 31.2713 11.4456 31.1343 11.6718 30.8589L31.2143 11.0741L45.6905 25.763V44.2621C44.3786 44.7212 43.383 45.8687 43.0663 47.2458H37.5476V28.4257C37.5476 27.6453 36.9595 27.0486 36.1905 27.0486H26.2381C25.469 27.0486 24.881 27.6453 24.881 28.4257V47.2458H16.7381V34.8521C16.7381 34.0717 16.15 33.475 15.381 33.475C14.6119 33.475 14.0238 34.0717 14.0238 34.8521V38.2491C11.8071 38.7999 10.0884 40.5444 9.63607 42.7936C7.4194 43.2526 5.65494 45.0425 5.15732 47.2458H1.35714C0.588095 47.2458 0 47.8426 0 48.6229C0 49.4033 0.588095 50 1.35714 50H44.3333C45.1024 50 45.6905 49.4033 45.6905 48.6229V48.1639C45.6905 47.3835 46.2786 46.7868 47.0476 46.7868C47.8167 46.7868 48.4048 47.3835 48.4048 48.1639V48.6229C48.4048 49.4033 48.9929 50 49.7619 50H51.119C51.8881 50 52.4762 49.4033 52.4762 48.6229C52.4762 47.8426 51.8881 47.2458 51.119 47.2458H51.0289C50.7123 45.8687 49.7167 44.7212 48.4048 44.2621V28.5171L50.7117 30.8589C50.9832 31.1343 51.2996 31.2713 51.6616 31.2713C52.0235 31.2713 52.3861 31.1343 52.6123 30.8589L56.4575 26.9571C57.0004 26.4063 57.0004 25.5336 56.4575 25.0287L32.1641 0.379236C31.9153 0.126771 31.5649 0 31.2143 0ZM31.2143 3.3172L53.6071 26.0391L51.7075 27.9666L32.1641 8.18271C31.8927 7.9073 31.5762 7.76941 31.2143 7.76941C30.8524 7.76941 30.5359 7.9073 30.2645 8.18271L10.7211 27.9666L8.82143 26.0391L31.2143 3.3172ZM28.5 38.0653C29.269 38.0653 29.8571 38.662 29.8571 39.4424C29.8571 40.2227 29.269 40.8194 28.5 40.8194C27.731 40.8194 27.1429 40.2227 27.1429 39.4424C27.1429 38.662 27.731 38.0653 28.5 38.0653ZM14.0238 41.1404V47.2458H8.00679C8.50441 46.1442 9.59048 45.4097 10.8571 45.4097C11.6262 45.4097 12.2143 44.813 12.2143 44.0326C12.2143 42.7474 12.9381 41.6453 14.0238 41.1404ZM55.6429 47.2458C55.2829 47.2458 54.9377 47.3909 54.6832 47.6492C54.4287 47.9074 54.2857 48.2577 54.2857 48.6229C54.2857 48.9881 54.4287 49.3384 54.6832 49.5967C54.9377 49.8549 55.2829 50 55.6429 50C56.0028 50 56.348 49.8549 56.6025 49.5967C56.857 49.3384 57 48.9881 57 48.6229C57 48.2577 56.857 47.9074 56.6025 47.6492C56.348 47.3909 56.0028 47.2458 55.6429 47.2458V47.2458Z" fill="#C3073F"/>
</svg>
