<svg width="50" height="50" viewBox="0 0 50 50" fill="none" xmlns="http://www.w3.org/2000/svg">
<path d="M24.6485 0.0976486C24.5313 0.136711 24.3458 0.302727 24.2188 0.458977C24.0333 0.703117 24.0137 0.820305 24.043 1.5332C24.0723 2.25585 24.1016 2.36327 24.3458 2.60741C24.7169 2.97851 25.2833 2.97851 25.6641 2.60741C25.9083 2.35351 25.9278 2.28515 25.9278 1.45507C25.9278 0.576164 25.9278 0.566399 25.6055 0.283195C25.2833 -7.62939e-06 25.0196 -0.0586014 24.6485 0.0976486Z" fill="#C3073F"/>
<path d="M31.4844 2.81249C31.3672 2.83202 31.0059 3.12499 30.6738 3.46679C30.166 3.99413 30.0781 4.14062 30.0781 4.44335C30.0781 4.96093 30.5078 5.37109 31.0547 5.37109C31.416 5.37109 31.5234 5.31249 32.0215 4.80468C32.6172 4.20898 32.7637 3.86718 32.5977 3.4082C32.4609 2.99804 31.9629 2.73437 31.4844 2.81249Z" fill="#C3073F"/>
<path d="M17.705 3.0078C17.1289 3.45702 17.2265 4.05273 17.9785 4.80468C18.4765 5.31249 18.5839 5.37109 18.9453 5.37109C19.4921 5.37109 19.9218 4.96093 19.9218 4.44335C19.9218 4.14062 19.8339 3.99413 19.3164 3.45702C18.7695 2.89062 18.6816 2.83202 18.3203 2.83202C18.0957 2.83202 17.832 2.91015 17.705 3.0078Z" fill="#C3073F"/>
<path d="M23.5937 5.22461C21.7968 5.72266 20.2929 7.20703 19.7753 9.01367C19.5409 9.81445 19.5605 11.2012 19.8144 12.0117C20.537 14.3262 22.5976 15.8594 24.9999 15.8594C27.4023 15.8594 29.4628 14.3262 30.1855 12.0117C30.4394 11.2012 30.4589 9.81445 30.2245 9.01367C29.6972 7.17773 28.1933 5.71289 26.3671 5.22461C25.703 5.04883 24.2382 5.04883 23.5937 5.22461ZM26.4648 7.33398C28.623 8.34961 29.1112 11.2695 27.4023 12.9297C25.7421 14.5312 22.9687 14.082 21.9433 12.0508C21.6405 11.4258 21.5624 11.1133 21.5722 10.3906C21.582 9.00391 22.4023 7.8125 23.7109 7.25586C24.4823 6.93359 25.6835 6.96289 26.4648 7.33398Z" fill="#C3073F"/>
<path d="M15.1758 9.5703C14.8828 9.68749 14.5508 10.1367 14.5508 10.4199C14.5508 10.7715 14.7949 11.1816 15.0879 11.3086C15.2246 11.3769 15.6641 11.4258 16.0645 11.4258C16.6895 11.4258 16.8164 11.3965 17.0703 11.1816C17.6172 10.7226 17.5 9.8828 16.8555 9.61913C16.4844 9.46288 15.5078 9.43358 15.1758 9.5703Z" fill="#C3073F"/>
<path d="M33.125 9.61913C32.5 9.90234 32.3926 10.7324 32.9297 11.1816C33.1836 11.3965 33.3106 11.4258 33.9453 11.4258C34.7754 11.4258 35.1563 11.2793 35.3321 10.8887C35.5176 10.4883 35.4688 10.1855 35.166 9.84374C34.9024 9.55077 34.834 9.52148 34.17 9.50195C33.6914 9.48241 33.3399 9.52148 33.125 9.61913Z" fill="#C3073F"/>
<path d="M18.3007 15.8008C17.8612 16.123 17.4413 16.6406 17.3534 16.9824C17.2557 17.3633 17.5292 17.8613 17.9198 18.0273C18.4178 18.2324 18.7206 18.1152 19.3651 17.4707C19.8534 16.9824 19.9217 16.8652 19.9217 16.5332C19.9217 16.1426 19.7167 15.8203 19.3651 15.6348C19.0233 15.459 18.7108 15.5078 18.3007 15.8008Z" fill="#C3073F"/>
<path d="M30.6152 15.6445C30.2734 15.8301 30.0781 16.1523 30.0781 16.5332C30.0781 16.8652 30.1465 16.9824 30.6445 17.4707C31.2793 18.1152 31.582 18.2324 32.0801 18.0273C32.4707 17.8613 32.7442 17.3633 32.6465 16.9824C32.5 16.4062 31.543 15.5273 31.0645 15.5273C30.9277 15.5273 30.7227 15.5859 30.6152 15.6445Z" fill="#C3073F"/>
<path d="M24.4824 18.1738C24.1895 18.3496 24.0234 18.8086 24.0234 19.4824C24.0234 20.4395 24.3359 20.8984 25 20.8984C25.6641 20.8984 25.9766 20.4395 25.9766 19.4824C25.9766 18.7891 25.8105 18.3398 25.498 18.1641C25.2539 18.0371 24.707 18.0469 24.4824 18.1738Z" fill="#C3073F"/>
<path d="M15.625 20.2832C13.9453 20.4199 12.627 20.8398 10.0293 22.0898C7.91016 23.0957 7.10938 23.3691 5.83008 23.4863C5.25391 23.5351 5.00977 23.6035 4.83398 23.7598C4.62891 23.9453 4.23828 25.2148 2.29492 32.0312L0 40.0879L0.0195312 42.793L0.0488281 45.5078L0.322266 45.7715L0.585938 46.0449L10.7422 46.0742L20.8887 46.0937L20.9473 46.4648C21.25 48.291 22.5781 49.6289 24.3555 49.9219C26.5918 50.293 28.6719 48.7695 29.0527 46.4648L29.1113 46.1035L32.1777 46.0742L35.2344 46.0449L35.4883 45.8105C35.9766 45.3418 35.8691 44.5117 35.2832 44.248C35.127 44.1797 33.8281 44.1406 31.4453 44.1406H27.832L27.5195 44.4238C27.2266 44.6875 27.207 44.7363 27.1484 45.6152C27.0801 46.5918 26.9531 46.9434 26.4941 47.4023C25.6738 48.2422 24.3262 48.2422 23.5059 47.4023C23.0469 46.9434 22.9199 46.5918 22.8516 45.6152C22.793 44.7363 22.7734 44.6875 22.4805 44.4238L22.168 44.1406H12.0605H1.95312V42.8809V41.6211L2.76367 41.8555C4.0332 42.2266 5.19531 42.3437 6.37695 42.2168C7.77344 42.0508 8.44727 41.8262 10.7422 40.7226C11.8457 40.1953 13.0273 39.668 13.3691 39.5605C15.5859 38.8379 18.2129 38.8769 20.332 39.6484C21.3672 40.0293 22.1875 40.4883 23.4375 41.3867C24.6387 42.2559 24.8926 42.373 25.2734 42.2266C25.4199 42.168 25.9961 41.7969 26.5625 41.3867C27.8125 40.4883 28.6328 40.0293 29.668 39.6484C31.7871 38.8769 34.4141 38.8379 36.6309 39.5605C36.9727 39.668 38.1543 40.1953 39.2578 40.7226C41.2988 41.6992 42.1289 42.0117 43.2617 42.1875C44.5215 42.3828 45.9961 42.2461 47.4414 41.8066L48.0469 41.6211V42.8809V44.1406H45.3125C42.4023 44.1406 42.1387 44.1797 41.8945 44.6191C41.6211 45.1465 41.9434 45.9082 42.5 46.0449C42.6172 46.0742 44.2285 46.0937 46.0645 46.0742L49.4141 46.0449L49.6777 45.7715L49.9512 45.5078L49.9805 42.793L50 40.0879L47.7051 32.0312C45.7617 25.2148 45.3711 23.9453 45.166 23.7598C44.9902 23.6035 44.7461 23.5351 44.1699 23.4863C42.8906 23.3691 42.0898 23.0957 39.9707 22.0801C37.1094 20.7129 36.0156 20.3906 33.7793 20.2539C31.123 20.0976 28.1934 20.9863 25.8984 22.6367C25.4883 22.9297 25.1074 23.1836 25.0488 23.2031C25 23.2226 24.5898 22.9883 24.1504 22.666C21.6309 20.8594 18.7012 20.0391 15.625 20.2832ZM18.125 22.2754C19.873 22.5195 21.5234 23.1934 23.1445 24.3359L24.0234 24.9512V32.168V39.375L23.7598 39.1992C21.5918 37.7734 19.3066 37.0996 16.6992 37.0996C14.4824 37.0996 13.1445 37.4414 10.498 38.6914C8.07617 39.834 7.64648 40.0098 6.81641 40.1758C5.56641 40.4297 4.44336 40.3418 2.99805 39.873L2.16797 39.5996L4.18945 32.5195L6.20117 25.4492L6.92383 25.3223C7.32422 25.2539 7.90039 25.1172 8.21289 25.0098C8.62305 24.873 8.78906 24.8535 8.78906 24.9316C8.78906 25 8.4082 26.3672 7.94922 27.9785C7.49023 29.5898 7.09961 31.0742 7.09961 31.2793C7.08984 31.5918 7.13867 31.709 7.40234 31.9434C7.99805 32.4707 8.76953 32.1973 9.01367 31.3769C9.0918 31.123 9.60938 29.2871 10.166 27.3047L11.1816 23.7012L12.1582 23.2422C14.0723 22.3437 16.1719 22.0019 18.125 22.2754ZM34.4727 22.2656C35.8789 22.4414 36.7871 22.7441 38.8184 23.7012C41.2793 24.8633 41.8262 25.0781 42.9199 25.2832L43.7988 25.459L45.8105 32.5293L47.832 39.5996L47.002 39.873C45.5566 40.3418 44.4336 40.4297 43.1836 40.1758C42.3535 40.0098 41.9238 39.834 39.502 38.6914C36.8555 37.4414 35.5176 37.0996 33.3008 37.0996C30.6934 37.0996 28.4082 37.7734 26.25 39.1992L25.9766 39.375V32.168V24.9512L26.8555 24.3359C29.2969 22.6172 31.7871 21.9434 34.4727 22.2656Z" fill="#C3073F"/>
<path d="M6.23049 34.6973C5.5469 35.332 5.97659 36.3867 6.91409 36.3574C7.33401 36.3477 7.81253 35.8887 7.81253 35.4883C7.81253 34.6484 6.81643 34.1504 6.23049 34.6973Z" fill="#C3073F"/>
<path d="M38.1153 44.4824C37.8125 44.7852 37.7735 44.873 37.8223 45.1855C38.0078 46.3281 39.5313 46.3281 39.7168 45.1855C39.7657 44.873 39.7266 44.7852 39.4239 44.4824C39.1797 44.2383 38.9942 44.1406 38.7696 44.1406C38.545 44.1406 38.3594 44.2383 38.1153 44.4824Z" fill="#C3073F"/>
</svg>
