<svg width="50" height="50" viewBox="0 0 50 50" fill="none" xmlns="http://www.w3.org/2000/svg">
<path d="M8.25195 0.136719C7.33398 0.419922 6.68945 0.957031 6.24023 1.77734L5.9082 2.39258V14.1602V25.9277L6.13281 26.377C6.47461 27.0703 6.95312 27.5684 7.63672 27.9395L8.25195 28.2715L10.8203 28.3008L13.3789 28.3301L13.3594 30.4004L13.3301 32.4707L6.83594 32.5195C3.26172 32.5488 0.332031 32.5781 0.322266 32.5977C0.205078 32.7051 0 33.2324 0 33.3984C0 33.5156 0.126953 33.7402 0.283203 33.8965L0.566406 34.1797H25H49.4336L49.7168 33.8965C49.873 33.7402 50 33.5156 50 33.3984C50 33.2324 49.7949 32.7051 49.6777 32.5977C49.668 32.5781 46.7383 32.5488 43.1641 32.5195L36.6699 32.4707L36.6406 30.4004L36.6211 28.3301L39.1797 28.3008L41.748 28.2715L42.3633 27.9395C43.0469 27.5684 43.5254 27.0703 43.8672 26.377L44.0918 25.9277V14.1602V2.39258L43.7598 1.77734C43.3887 1.09375 42.8613 0.605469 42.1289 0.273438L41.6504 0.0488281L25.1465 0.0292969C12.0703 0.0195312 8.56445 0.0390625 8.25195 0.136719ZM41.5723 1.86523C41.8555 2.00195 42.0801 2.20703 42.2363 2.48047L42.4805 2.90039V14.1699V25.4395L42.2559 25.8301C42.1094 26.084 41.8945 26.2988 41.6016 26.4453C41.1719 26.6602 41.0938 26.6602 38.7305 26.6406L36.2988 26.6113L36.1328 26.123C35.4199 24.043 33.6621 22.0215 31.6406 20.9961C31.3965 20.8691 30.8594 20.6543 30.4297 20.5078L29.668 20.2441L30.2734 19.7656C31.1035 19.1211 31.9531 18.0273 32.4707 16.9629C33.0566 15.7422 33.2129 15.1074 33.2715 13.6523C33.3203 12.5879 33.291 12.2754 33.1055 11.4648C32.6855 9.64844 31.5332 7.82227 30.1172 6.74805C26.9141 4.32617 22.6562 4.43359 19.5508 7.03125C18.4277 7.96875 17.3633 9.6582 16.9434 11.1816C16.6895 12.0996 16.6406 13.9551 16.8457 14.9512C17.2266 16.8359 18.2617 18.5645 19.707 19.7461L20.332 20.2441L19.4238 20.5664C16.8652 21.4844 14.7168 23.6328 13.8672 26.123L13.7012 26.6113L11.2695 26.6406C8.90625 26.6602 8.82812 26.6602 8.39844 26.4453C8.10547 26.2988 7.89062 26.084 7.74414 25.8301L7.51953 25.4395V14.1699V2.90039L7.76367 2.49023C7.91992 2.2168 8.14453 2.00195 8.41797 1.86523L8.83789 1.66016H24.9902H41.1523L41.5723 1.86523ZM26.709 6.89453C28.9746 7.48047 30.8594 9.375 31.4453 11.6797C31.6797 12.5977 31.6992 13.9453 31.4844 14.8438C30.9375 17.207 29.043 19.1406 26.6602 19.7852C25.8105 20.0098 24.1895 20.0195 23.3496 19.7949C20.3906 19.0039 18.3594 16.377 18.3594 13.3301C18.3594 8.96484 22.4512 5.80078 26.709 6.89453ZM22.168 22.9492L22.4902 24.2285L22.2559 26.8066C22.1289 28.2324 22.002 29.3945 21.9629 29.3945C21.8359 29.3945 20.8105 27.1973 20.5078 26.2695C20.1758 25.2637 19.8242 23.4082 19.8242 22.6562C19.8242 22.2461 19.8535 22.1777 20.0977 22.0801C20.3418 21.9824 21.4844 21.709 21.7383 21.6895C21.8066 21.6797 21.9922 22.2363 22.168 22.9492ZM26.2402 22.4805L26.0254 23.291H25H23.9746L23.7598 22.4805L23.5547 21.6797H25H26.4453L26.2402 22.4805ZM29.541 21.9629L30.127 22.1191L30.1562 22.5879C30.1953 23.252 29.8535 25.1855 29.4922 26.2695C29.1895 27.1973 28.1641 29.3945 28.0371 29.3945C27.998 29.3945 27.8711 28.2324 27.7441 26.8066L27.5098 24.2285L27.832 22.9492L28.1445 21.6797L28.5547 21.748C28.7695 21.7773 29.2188 21.875 29.541 21.9629ZM33.2715 24.4141C33.9258 25.1953 34.5117 26.3574 34.7656 27.3828C34.9316 28.0371 34.9609 28.4863 34.9609 30.3418V32.5195H31.3867H27.8125L28.3008 31.9043C30.2441 29.4531 31.2305 27.041 31.7969 23.3594L31.8457 23.0371L32.2949 23.4082C32.5488 23.6133 32.9883 24.0625 33.2715 24.4141ZM18.2129 23.5059C18.3984 24.7559 18.7012 26.1426 18.9551 26.9043C19.4238 28.3496 20.4004 30.1953 21.3281 31.416L22.168 32.5195H18.6035H15.0391V30.3418C15.0391 28.4668 15.0684 28.0469 15.2344 27.3828C15.6055 25.918 16.4551 24.5117 17.5098 23.584C17.7832 23.3398 18.0469 23.1445 18.0859 23.1445C18.125 23.1445 18.1836 23.3105 18.2129 23.5059ZM25.918 25.2148C25.9473 25.3418 26.084 26.7969 26.2305 28.4473L26.4941 31.4648L26.0547 31.8945C25.293 32.666 24.6484 32.6465 23.8867 31.8555L23.5059 31.4551L23.7695 28.4473C23.916 26.7969 24.0527 25.3418 24.082 25.2148C24.1211 25.0098 24.1699 25 25 25C25.8301 25 25.8789 25.0098 25.918 25.2148Z" fill="#C3073F"/>
<path d="M3.67173 36.0352C2.72447 36.377 1.92369 37.0313 1.40611 37.8906C0.761577 38.9453 0.693217 40.5567 1.23033 41.6992C1.39634 42.0508 1.70884 42.5293 1.92369 42.7734L2.31431 43.2031L1.57212 43.9453C-0.166158 45.6543 -0.507955 48.0469 0.800639 49.2774C1.51353 49.9512 1.494 49.9512 4.81431 49.9805C8.14439 50.0098 8.41783 49.9805 9.10142 49.4141C9.29673 49.2481 9.57017 48.8965 9.70689 48.6133C10.4198 47.1875 9.59947 44.668 8.0565 43.5645L7.60728 43.2422L8.0565 42.7637C8.91587 41.8457 9.3065 40.5567 9.10142 39.3457C8.86704 37.9688 7.9979 36.8164 6.76744 36.2207C6.19126 35.9375 5.98619 35.8984 5.17564 35.8692C4.42369 35.8399 4.14048 35.8789 3.67173 36.0352ZM6.11314 37.7734C7.32408 38.3887 7.83189 39.9219 7.21665 41.1231C6.98228 41.6016 6.24986 42.2266 5.78111 42.3633C4.11119 42.8613 2.54869 41.709 2.53892 39.9805C2.53892 38.9453 3.18345 38.0078 4.15025 37.6465C4.66783 37.4512 5.60533 37.5098 6.11314 37.7734ZM5.8104 44.2871C6.76744 44.541 7.52915 45.1465 7.97837 46.0352C8.23228 46.5332 8.369 47.3731 8.26158 47.793C8.13462 48.3008 7.87095 48.3399 4.9315 48.3399H2.22642L1.93345 48.0371C1.65025 47.7637 1.64048 47.7051 1.68931 47.2168C1.8358 45.8008 2.90025 44.5703 4.26744 44.2481C4.82408 44.1113 5.17564 44.1211 5.8104 44.2871Z" fill="#C3073F"/>
<path d="M17.0119 36.0156C14.1505 37.041 13.2521 40.5859 15.2834 42.7637L15.713 43.2227L15.1857 43.6328C14.6388 44.0625 13.9162 45.0586 13.6232 45.8008C13.5255 46.0547 13.4279 46.6211 13.4084 47.1191C13.3595 47.8906 13.3791 48.0664 13.5744 48.5156C13.838 49.1309 14.3947 49.6387 15.049 49.8535C15.4396 49.9902 15.9767 50.0098 18.5255 49.9805C21.8459 49.9512 21.8263 49.9512 22.5392 49.2773C23.2521 48.6133 23.4865 47.6465 23.2033 46.4551C22.9591 45.4199 22.5294 44.668 21.7287 43.8965L21.0255 43.2031L21.4162 42.7734C21.631 42.5293 21.9435 42.0508 22.1095 41.6992C22.3927 41.1035 22.4123 40.9863 22.4123 39.9902C22.4123 38.9844 22.3927 38.8769 22.0998 38.2617C21.6701 37.3535 21.0353 36.6992 20.1369 36.2598C19.4728 35.9277 19.3263 35.8887 18.4669 35.8691C17.7443 35.8398 17.4123 35.8789 17.0119 36.0156ZM19.1505 37.6465C20.5275 38.1152 21.1916 39.7266 20.5666 41.0644C19.8634 42.5977 17.8224 42.959 16.6115 41.7773C16.0744 41.25 15.8791 40.7617 15.8791 39.9902C15.8791 39.2285 16.0255 38.8379 16.5431 38.3008C17.2267 37.5684 18.2033 37.3242 19.1505 37.6465ZM19.7853 44.5312C20.8107 45.0293 21.5041 46.0254 21.6408 47.1875C21.6994 47.7148 21.6896 47.7539 21.4064 48.0469L21.1037 48.3496L18.2521 48.3203L15.4103 48.291L15.215 48.0469C15.049 47.8418 15.0197 47.7051 15.0587 47.168C15.1369 46.1816 15.6154 45.3516 16.4455 44.7754C17.4709 44.082 18.6818 43.9941 19.7853 44.5312Z" fill="#C3073F"/>
<path d="M30.5177 35.9668C29.5509 36.2891 28.7501 36.875 28.2227 37.6465C27.4513 38.7695 27.3145 40.4687 27.8907 41.6992C28.0567 42.0508 28.3888 42.5488 28.6134 42.8125C29.0138 43.252 29.0235 43.291 28.8477 43.3789C28.3888 43.6328 27.5098 44.6582 27.1876 45.3418C26.4259 46.9629 26.5138 48.3984 27.461 49.2774C28.1739 49.9512 28.1544 49.9512 31.4747 49.9805C34.8048 50.0098 35.0782 49.9805 35.7618 49.4141C35.9571 49.2481 36.2403 48.877 36.3868 48.5742C36.6309 48.0762 36.6407 47.9688 36.6016 47.1289C36.5626 46.3672 36.504 46.1035 36.2403 45.5566C35.8301 44.6777 35.3516 44.043 34.7657 43.5938L34.2872 43.2227L34.7266 42.7539C36.6114 40.7422 35.9571 37.4414 33.4473 36.2305C32.8419 35.9375 32.6563 35.8984 31.836 35.8691C31.2501 35.8496 30.7618 35.8887 30.5177 35.9668ZM32.7637 37.7734C33.6524 38.2324 34.1212 39.0039 34.1212 39.9902C34.1212 41.377 33.1837 42.3633 31.7774 42.4609C30.3516 42.5586 29.1993 41.4551 29.1993 39.9805C29.1993 38.9453 29.8438 38.0078 30.8106 37.6465C31.3282 37.4512 32.2657 37.5098 32.7637 37.7734ZM32.4708 44.2871C33.8673 44.6484 34.8438 45.791 34.9415 47.168C34.9805 47.7051 34.9512 47.8418 34.7852 48.0469L34.5899 48.291L31.7481 48.3203L28.8966 48.3496L28.5938 48.0469C28.3106 47.7539 28.3009 47.7149 28.3595 47.1875C28.5255 45.7813 29.502 44.6387 30.8497 44.2773C31.4552 44.1113 31.7872 44.1113 32.4708 44.2871Z" fill="#C3073F"/>
<path d="M43.6719 36.0156C42.1973 36.543 41.1719 37.7832 40.8984 39.3457C40.6934 40.5566 41.084 41.8457 41.9434 42.7637L42.3926 43.2422L41.9434 43.5644C41.6992 43.7402 41.3281 44.1016 41.123 44.375C40.3711 45.3711 40.0391 46.2793 40.0391 47.4219C40.0391 48.6035 40.6641 49.5117 41.709 49.8535C42.0996 49.9902 42.6563 50.0098 45.1856 49.9805C47.9004 49.9512 48.2227 49.9316 48.5352 49.7656C50.0684 48.9551 50.4102 47.2461 49.4434 45.2344C49.2774 44.8828 48.9063 44.4141 48.4375 43.9355L47.6953 43.1934L48.0762 42.7637C48.291 42.5293 48.6035 42.0508 48.7695 41.6992C49.1504 40.8789 49.2383 39.5898 48.9746 38.7598C48.6035 37.6269 47.8027 36.7187 46.6992 36.2012C46.1328 35.9375 45.918 35.8887 45.1172 35.8691C44.4043 35.8398 44.0723 35.8789 43.6719 36.0156ZM45.8106 37.6465C46.8066 37.9883 47.4609 38.916 47.4609 39.9805C47.4512 41.709 45.8887 42.8613 44.2188 42.3633C43.75 42.2266 43.0176 41.6016 42.7832 41.123C42.0801 39.7461 42.832 38.0469 44.3359 37.5879C44.7461 37.4707 45.3516 37.4902 45.8106 37.6465ZM46.4453 44.5312C47.4707 45.0293 48.1934 46.0742 48.3106 47.207C48.3594 47.7051 48.3496 47.7637 48.0664 48.0371L47.7734 48.3398H45.0684C42.1289 48.3398 41.8652 48.3008 41.7383 47.793C41.6309 47.373 41.7676 46.5332 42.0215 46.0352C42.8809 44.3652 44.7852 43.7207 46.4453 44.5312Z" fill="#C3073F"/>
</svg>
