<svg width="57" height="50" viewBox="0 0 57 50" fill="none" xmlns="http://www.w3.org/2000/svg">
<path d="M28.136 0C22.0854 0 16.3043 1.64344 11.4179 4.75288C10.5778 5.28756 10.3495 6.29968 10.8939 7.0746L15.3712 13.4458C15.6608 13.8581 16.1333 14.1458 16.6749 14.2398C17.2162 14.3339 17.7781 14.2256 18.2251 13.9413C20.8922 12.2441 24.0485 11.347 27.3528 11.347C35.9351 11.347 42.9171 17.4716 42.9171 24.9999C42.9171 32.5282 35.9351 38.6528 27.3528 38.6528C24.0485 38.6528 20.8922 37.7557 18.2251 36.0585C17.7781 35.7742 17.2165 35.6661 16.6749 35.7601C16.1335 35.854 15.661 36.1417 15.3712 36.554L10.8939 42.9254C10.3493 43.7003 10.5778 44.7124 11.4179 45.2471C16.3042 48.3566 22.0854 50 28.136 50C43.851 50 56.6361 38.785 56.6361 24.9999C56.6361 11.2149 43.851 0 28.136 0ZM28.136 46.5197C23.5443 46.5197 19.1338 45.4205 15.2728 43.3269L17.6869 39.8914C20.621 41.3629 23.9238 42.1333 27.3528 42.1333C38.1228 42.1333 46.8847 34.4473 46.8847 25.0001C46.8847 15.5529 38.1226 7.86686 27.3528 7.86686C23.9239 7.86686 20.621 8.63723 17.6869 10.1088L15.2728 6.67309C19.1336 4.57965 23.5443 3.48031 28.136 3.48031C41.6631 3.48031 52.6684 13.134 52.6684 24.9999C52.6684 36.8658 41.6633 46.5197 28.136 46.5197Z" fill="#C3073F"/>
<path d="M20.3369 32.6489C19.931 33.1829 19.8932 33.8695 20.2385 34.4353C20.5837 35.001 21.256 35.3543 21.9874 35.3543H30.7163C31.3796 35.3543 31.9991 35.0636 32.367 34.5794L38.9138 25.9654C39.3581 25.3809 39.3581 24.6193 38.9138 24.0349L32.3672 15.4208C31.9993 14.9366 31.38 14.6458 30.7165 14.6458H21.9876C21.256 14.6458 20.5837 14.9992 20.2387 15.5649C19.8934 16.1307 19.9312 16.8174 20.3371 17.3512L22.6454 20.3885H5.62091C2.72215 20.3885 0.363647 22.4571 0.363647 25.0001C0.363647 27.543 2.72196 29.6117 5.62091 29.6117H22.6452L20.3369 32.6489ZM5.62091 26.1312C4.90984 26.1312 4.3314 25.6238 4.3314 25.0001C4.3314 24.3763 4.90984 23.8689 5.62091 23.8689H26.3521C27.0837 23.8689 27.756 23.5156 28.1011 22.9499C28.4463 22.3841 28.4085 21.6974 28.0026 21.1635L25.6944 18.1263H29.6546L34.8787 25.0001L29.6546 31.8738H25.6944L28.0026 28.8366C28.4085 28.3026 28.4463 27.6161 28.1011 27.0503C27.7558 26.4846 27.0835 26.1312 26.3521 26.1312H5.62091Z" fill="#C3073F"/>
</svg>
