<svg width="17" height="17" id='login' viewBox="0 0 17 17" fill="none" xmlns="http://www.w3.org/2000/svg">
    <path
        d="M7.62388 0.171484C5.95728 0.405077 4.69946 0.903709 3.4686 1.80664C2.95649 2.18398 2.0311 3.12285 1.66274 3.64844C1.28091 4.1875 0.818212 5.07695 0.593602 5.70586C-0.695656 9.33105 0.625048 13.3561 3.80552 15.4853C6.21333 17.098 9.18267 17.3766 11.8241 16.24C12.7719 15.8312 13.7018 15.2023 14.4295 14.4746C16.4645 12.4352 17.318 9.51523 16.6936 6.70762C16.5409 6.02031 16.3657 5.53965 16.0243 4.83887C15.1303 3.01055 13.6479 1.6 11.7971 0.813866C10.692 0.342186 9.94185 0.189453 8.67954 0.166992C8.17192 0.158007 7.70024 0.162498 7.62388 0.171484ZM9.98677 0.899218C11.568 1.22715 12.9067 1.95039 14.0118 3.07344C14.5059 3.57207 14.6227 3.72031 15 4.28633C16.8823 7.13887 16.6442 10.9033 14.4161 13.5627C14.0836 13.958 13.6479 14.3848 13.576 14.3848C13.5581 14.3848 13.5311 14.1961 13.5176 13.967C13.4682 13.1988 13.2077 12.4441 12.754 11.7658C12.17 10.8898 11.3569 10.2744 10.2788 9.8791C10.2114 9.85215 10.2563 9.80273 10.5258 9.60957C10.9122 9.33105 11.303 8.88633 11.5231 8.46406C11.9903 7.57012 12.0397 6.48301 11.6579 5.55762C11.3389 4.79394 10.6112 4.05723 9.85649 3.73379C9.06138 3.39238 8.00571 3.3834 7.19712 3.71133C6.60415 3.95391 5.96177 4.49297 5.60239 5.05898C4.65454 6.5414 5.04536 8.58984 6.47388 9.60957C6.74341 9.80273 6.78833 9.85215 6.72095 9.8791C6.29419 10.0318 5.87642 10.243 5.54849 10.4586C4.37153 11.2402 3.56743 12.6014 3.48208 13.949C3.4686 14.1871 3.44165 14.3848 3.42817 14.3848C3.3563 14.3848 2.90259 13.94 2.58813 13.5627C0.827196 11.4648 0.274657 8.68867 1.1147 6.12363C1.66724 4.43906 2.80376 2.96113 4.29067 1.9998C5.11724 1.46973 6.07407 1.0834 7.01743 0.908203C7.71821 0.777929 7.69126 0.782421 8.65708 0.795898C9.33091 0.809374 9.66333 0.831835 9.98677 0.899218ZM9.40728 4.2459C9.85649 4.40762 10.1799 4.62324 10.5124 4.97363C11.02 5.5082 11.285 6.16406 11.285 6.88281C11.285 7.62851 11.002 8.30234 10.454 8.8414C9.7397 9.55117 8.702 9.8207 7.73618 9.55117C7.08481 9.36699 6.38853 8.81894 6.0606 8.23047C5.58892 7.37695 5.60239 6.30781 6.09653 5.46328C6.38403 4.97363 6.97251 4.475 7.50708 4.27285C7.90239 4.12461 8.08208 4.10215 8.61216 4.11562C8.99849 4.1291 9.17368 4.15605 9.40728 4.2459ZM9.51509 10.3463C10.9211 10.5934 12.1071 11.5502 12.6282 12.8574C12.8213 13.3471 12.9022 13.8098 12.9022 14.4162V14.9463L12.5563 15.1574C10.0542 16.6758 6.96353 16.6758 4.4479 15.1619L4.09751 14.9508V14.3893C4.09751 13.7514 4.18735 13.2887 4.40747 12.7676C4.92856 11.5412 6.04712 10.6383 7.37681 10.3643C7.73618 10.2924 9.14224 10.2789 9.51509 10.3463Z"
        fill="#950740" />
</svg>