<svg width="50" height="50" viewBox="0 0 50 50" fill="none" xmlns="http://www.w3.org/2000/svg">
<path d="M26.1914 0.146487C29.3848 0.683597 32.1875 2.74414 33.623 5.61524C33.9355 6.24024 42.2852 26.2891 42.2852 26.4063C42.2852 26.4356 41.0352 26.4648 39.502 26.4648H36.7188V32.6563C36.7188 36.4551 36.6797 39.043 36.6211 39.3652C36.2891 41.1231 34.873 42.5391 33.1152 42.8711C32.8223 42.9199 31.3477 42.9688 29.8242 42.9688H27.0508V46.4844V50H25.5859H24.1211V45.0195V40.0391H28.3691C32.4414 40.0391 32.6367 40.0293 33.0078 39.8438C33.6816 39.502 33.7891 39.1504 33.7891 37.2559V35.6445L31.0059 34.2578C29.4727 33.4863 28.2227 32.8418 28.2227 32.8125C28.2227 32.7832 29.4727 32.1387 31.0059 31.3672L33.7891 29.9805V26.7578V23.5352H35.8496C37.7734 23.5352 37.9102 23.5254 37.8613 23.3594C37.7246 22.8809 31.2012 7.30469 30.8887 6.69922C30.2246 5.43946 28.6426 4.04297 27.2461 3.47657C26.0547 2.98828 26.1035 2.99805 19.4824 2.95899C15.1758 2.92969 12.9883 2.94922 12.4512 3.02735C10.1953 3.34961 8.13477 4.36524 6.54297 5.95703C5.25391 7.2461 4.34571 8.84766 3.82813 10.7031L3.56446 11.6699L3.53516 19.5313C3.50586 28.2129 3.4961 28.1641 4.11133 29.3945C4.46289 30.0879 5.17578 30.8984 5.88868 31.416C7.00196 32.207 7.63672 32.7832 8.16407 33.4375C9.53125 35.1563 10.2051 37.4414 9.96094 39.5606C9.90235 40.0098 9.29688 42.5293 8.61328 45.166L7.37305 49.9512L5.84961 49.9805L4.32618 50L5.64453 45C6.84571 40.4004 6.95313 39.9024 7.00196 38.8965C7.06055 37.627 6.88477 36.875 6.29883 35.8887C5.83008 35.1074 5.51758 34.7949 4.24805 33.8379C2.68555 32.666 1.76758 31.5039 1.18164 29.9902C0.625004 28.5254 0.63477 28.7598 0.63477 19.9219C0.63477 11.2109 0.63477 11.2305 1.13282 9.50196C2.35352 5.24414 5.83985 1.78711 10.1465 0.527347C11.7969 0.048831 12.5293 2.86102e-06 19.2383 0.00976849C23.8184 0.0195341 25.6348 0.048831 26.1914 0.146487Z" fill="#C3073F"/>
<path d="M30.3711 17.1875V19.4434L28.9258 19.4141L27.4902 19.3848V17.1875V14.9902L28.9258 14.9609L30.3711 14.9316V17.1875Z" fill="#C3073F"/>
<path d="M47.5195 27.7148C48.6621 29.0527 49.4141 31.0742 49.4141 32.8125C49.4141 34.5801 48.5938 36.7383 47.4512 37.9785L47.1484 38.3105L46.123 37.2852L45.0977 36.2598L45.4297 35.8301C46.7773 34.0527 46.7773 31.5723 45.4297 29.7949L45.0977 29.3652L46.1035 28.3594C46.6602 27.8027 47.1387 27.3437 47.168 27.3535C47.1973 27.3535 47.3535 27.5195 47.5195 27.7148Z" fill="#C3073F"/>
<path d="M42.2656 30.9668C42.7343 31.1035 43.33 31.748 43.4668 32.2461C43.6914 33.1152 43.3496 34.0234 42.6074 34.4824C42.0507 34.834 41.1132 34.8145 40.5566 34.4336C40.0781 34.1113 39.6484 33.3496 39.6484 32.8125C39.6484 32.2852 40.0781 31.5137 40.5371 31.2012C40.9863 30.9082 41.7382 30.8008 42.2656 30.9668Z" fill="#C3073F"/>
</svg>
