<svg width="21" height="21" viewBox="0 0 21 21" fill="none" xmlns="http://www.w3.org/2000/svg">
<path d="M9.67986 5.27458C7.08768 5.51247 4.39705 6.66501 1.87869 8.62556C0.968146 9.33513 0.0699037 10.1842 0.020685 10.3892C0.00427875 10.4508 0.00427875 10.5492 0.0165834 10.6066C0.0986147 10.9183 1.71053 12.3211 2.9533 13.1537C3.66287 13.6295 4.03611 13.851 4.73338 14.2119C6.16483 14.9543 7.57986 15.426 9.06463 15.6556C9.72498 15.7582 11.2754 15.7582 11.9357 15.6556C14.3351 15.2865 16.6976 14.2242 18.9576 12.5015C19.5318 12.0668 20.3439 11.3572 20.7008 10.984C20.9633 10.7051 21.0289 10.5738 20.9838 10.3933C20.9017 10.0775 19.2939 8.68298 18.0471 7.84626C17.3375 7.37048 16.9642 7.149 16.267 6.78806C14.856 6.05388 13.4082 5.5699 11.9767 5.35251C11.5625 5.29099 10.0777 5.23767 9.67986 5.27458ZM11.5256 6.6363C12.2762 6.86189 12.7847 7.1613 13.3138 7.6863C13.8429 8.21951 14.1547 8.75271 14.3803 9.5156C14.491 9.90525 14.491 11.0537 14.3803 11.4638C14.1054 12.4482 13.5353 13.2603 12.7396 13.7976C12.35 14.0601 12.0711 14.1914 11.5707 14.3431C11.2467 14.4457 11.1605 14.4539 10.5002 14.4539C9.83162 14.4539 9.75779 14.4457 9.41326 14.339C8.4576 14.0478 7.69881 13.49 7.1615 12.682C6.93592 12.3375 6.80057 12.0463 6.65701 11.5705C6.55858 11.2506 6.54627 11.1521 6.54627 10.541C6.54217 9.80271 6.59139 9.5156 6.80877 8.97419C7.1492 8.13337 7.91209 7.32126 8.75701 6.8988C8.9744 6.79216 9.53631 6.60759 9.7865 6.56247C10.1392 6.49685 11.2221 6.54197 11.5256 6.6363ZM6.94822 7.10798C6.33709 7.74783 5.92693 8.4615 5.72186 9.249C5.28709 10.9306 5.73826 12.641 6.95643 13.9043L7.30916 14.2693L6.98924 14.1545C5.58651 13.6418 4.32322 12.9609 3.00252 12.0052C2.23143 11.4474 1.18963 10.582 1.18963 10.4959C1.18963 10.4549 1.8869 9.84372 2.33807 9.48689C3.76951 8.36306 5.22557 7.52224 6.74725 6.93572C7.04256 6.82087 7.28865 6.73064 7.29686 6.72654C7.30506 6.72654 7.1451 6.8988 6.94822 7.10798ZM14.5607 7.05466C15.8281 7.55915 17.3662 8.4697 18.6623 9.48689C19.1258 9.85193 19.8107 10.4549 19.8107 10.5C19.8107 10.5205 19.6262 10.6968 19.4047 10.8937C17.8379 12.2554 15.9471 13.4203 14.2941 14.0478C14.0275 14.1504 13.7896 14.2324 13.7691 14.2324C13.7445 14.2324 13.8799 14.0765 14.0644 13.8838C15.258 12.6369 15.7092 10.9142 15.2785 9.249C15.0734 8.4615 14.6633 7.74783 14.0521 7.10798L13.6871 6.72243L14.0111 6.84548C14.1875 6.91111 14.4377 7.00544 14.5607 7.05466Z" fill="white"/>
<path d="M9.93445 7.9775C8.71218 8.25231 7.85906 9.39254 7.92879 10.6476C7.9657 11.2998 8.21589 11.8535 8.67937 12.321C8.97878 12.6164 9.2741 12.805 9.68835 12.9527C9.95085 13.047 10.0493 13.0593 10.5005 13.0593C10.9516 13.0593 11.0501 13.047 11.3126 12.9527C11.7268 12.805 12.0221 12.6164 12.3215 12.321C12.6169 12.0216 12.8055 11.7263 12.9532 11.3121C13.0475 11.0496 13.0598 10.9511 13.0598 10.5C13.0598 10.0488 13.0475 9.95035 12.9532 9.68785C12.8055 9.27359 12.6169 8.97828 12.3215 8.67887C11.8335 8.19488 11.288 7.95699 10.603 7.93238C10.3405 7.92418 10.0985 7.93649 9.93445 7.9775Z" fill="white"/>
</svg>
