<svg width="57" height="50" viewBox="0 0 57 50" fill="none" xmlns="http://www.w3.org/2000/svg">
<path d="M54.1497 15.0014H41.3262L32.6083 0.663655C32.2378 0.053696 31.3771 -0.178823 30.6799 0.148715C29.9854 0.473714 29.7224 1.23035 30.0929 1.84031L38.0944 15.0015H18.9071L26.9087 1.84031C27.2792 1.23035 27.016 0.472835 26.3216 0.148715C25.6215 -0.178823 24.7646 0.053696 24.3932 0.663655L15.6754 15.0015H2.85165C1.27759 15.0015 0.00177002 16.1206 0.00177002 17.5014V22.5012C0.00177002 23.8819 1.27759 25.0011 2.85165 25.0011H2.90108C2.90108 25.0944 2.85733 25.1836 2.86968 25.2768L5.71956 47.776C5.8801 49.0418 7.09991 50.0001 8.55241 50.0001H48.4509C49.9034 50.0001 51.1231 49.0418 51.2836 47.776L54.1335 25.2768C54.1459 25.1827 54.1021 25.0943 54.1021 25.0011H54.1506C55.7246 25.0011 57.0004 23.8819 57.0004 22.5012V17.5014C56.9995 16.1214 55.7238 15.0014 54.1497 15.0014ZM48.4499 47.5002H8.5514L5.70153 25.0011H51.2998L48.4499 47.5002ZM54.1497 22.5012H2.85165V17.5014H14.1553L12.9926 19.413C12.6221 20.023 12.8853 20.7805 13.5796 21.1046C13.7943 21.2046 14.0233 21.2513 14.2494 21.2513C14.7586 21.2513 15.2516 21.0121 15.5091 20.5897L17.3871 17.5015H39.6144L41.4925 20.5897C41.7499 21.0121 42.2429 21.2513 42.7522 21.2513C42.9773 21.2513 43.2072 21.2046 43.4219 21.1046C44.1164 20.7796 44.3794 20.023 44.0089 19.413L42.8462 17.5014H54.1499V22.5012H54.1497Z" fill="#C3073F"/>
<path d="M15.6751 27.5009C13.3183 27.5009 11.4002 29.1833 11.4002 31.2508V41.2504C11.4002 43.3187 13.3182 45.0003 15.6751 45.0003C18.032 45.0003 19.95 43.3179 19.95 41.2504V31.2508C19.95 29.1833 18.0319 27.5009 15.6751 27.5009ZM17.1 41.2503C17.1 41.9403 16.4616 42.5003 15.675 42.5003C14.8883 42.5003 14.25 41.9404 14.25 41.2503V31.2508C14.25 30.5608 14.8883 30.0008 15.675 30.0008C16.4616 30.0008 17.1 30.5607 17.1 31.2508V41.2503Z" fill="#C3073F"/>
<path d="M28.4995 27.5009C26.1427 27.5009 24.2247 29.1833 24.2247 31.2508V41.2504C24.2247 43.3187 26.1426 45.0003 28.4995 45.0003C30.8564 45.0003 32.7744 43.3179 32.7744 41.2504V31.2508C32.7744 29.1833 30.8563 27.5009 28.4995 27.5009ZM29.9245 41.2503C29.9245 41.9403 29.2862 42.5003 28.4995 42.5003C27.713 42.5003 27.0745 41.9404 27.0745 41.2503V31.2508C27.0745 30.5608 27.7129 30.0008 28.4995 30.0008C29.2861 30.0008 29.9245 30.5607 29.9245 31.2508V41.2503Z" fill="#C3073F"/>
<path d="M41.3241 27.5009C38.9673 27.5009 37.0492 29.1833 37.0492 31.2508V41.2504C37.0492 43.3187 38.9671 45.0003 41.3241 45.0003C43.681 45.0003 45.5989 43.3179 45.5989 41.2504V31.2508C45.5989 29.1833 43.681 27.5009 41.3241 27.5009ZM42.7491 41.2503C42.7491 41.9403 42.1107 42.5003 41.3241 42.5003C40.5374 42.5003 39.8991 41.9404 39.8991 41.2503V31.2508C39.8991 30.5608 40.5374 30.0008 41.3241 30.0008C42.1107 30.0008 42.7491 30.5607 42.7491 31.2508V41.2503Z" fill="#C3073F"/>
</svg>
