<svg width="50" height="50" viewBox="0 0 50 50" fill="none" xmlns="http://www.w3.org/2000/svg">
<path d="M24 8C24 10.2 24.5 12 25 12C25.6 12 26 10.2 26 8C26 5.8 25.6 4 25 4C24.5 4 24 5.8 24 8Z" fill="#C3073F"/>
<path d="M15 5.4C15 6.9 17.4 12 18.1 12C19.2 12 19.2 12 17.9 8.1C17.3 6.4 16.4 5 15.9 5C15.4 5 15 5.2 15 5.4Z" fill="#C3073F"/>
<path d="M32.1 8.1C30.8 12 30.8 12 31.9 12C32.4 12 33.3 10.6 33.9 8.9C35.2 5 35.2 5 34.1 5C33.6 5 32.7 6.4 32.1 8.1Z" fill="#C3073F"/>
<path d="M6.3 12.8C6 13.9 5 15 3.9 15.3C2.2 15.8 2 16.8 2 24C2 31.2 2.2 32.2 3.9 32.7C5 33 6 34.1 6.3 35.2C6.7 36.6 7.5 37.1 9.2 36.8C11.2 36.5 11.5 35.9 11.8 31.7C12 29.1 12.5 27 13.1 27C13.6 27 14 27.7 14 28.5C14 29.4 15.1 31.2 16.5 32.6C18.8 34.9 18.9 35.6 18.4 40.5C18 44 18.1 46 18.7 46C19.3 46 20.1 43.3 20.4 39.9C21.1 34.2 21 33.8 18.6 31.9C15.7 29.6 15.2 27 17.5 27C18.6 27 19 25.8 19 22.5C19 20 19.5 18 20 18C20.6 18 21 18.4 21 19C21 19.5 21.5 20 22 20C22.6 20 23 19.3 23 18.5C23 17.7 23.5 17 24 17C24.6 17 25 17.7 25 18.5C25 19.3 25.5 20 26 20C26.6 20 27 19.5 27 19C27 18.4 27.5 18 28 18C28.6 18 29 18.7 29 19.5C29 20.3 29.5 21 30 21C30.6 21 31 20.5 31 20C31 19.4 31.5 19 32 19C33.7 19 33.2 30.1 31.4 32.1C30.2 33.4 30 35.1 30.6 39.9C30.9 43.3 31.7 46 32.3 46C32.9 46 33 43.8 32.6 40.2C32.2 36 32.4 34 33.5 32.6C34.3 31.5 35 29.8 35 28.8C35 27.8 35.7 27 36.4 27C37.5 27 38 28.4 38.2 31.7C38.5 35.9 38.8 36.5 40.8 36.8C42.5 37.1 43.3 36.6 43.7 35.2C44 34.1 45 33 46.1 32.7C47.8 32.2 48 31.2 48 24C48 16.8 47.8 15.8 46.1 15.3C45 15 44 13.9 43.7 12.8C43.3 11.4 42.5 10.9 40.8 11.2C38.8 11.5 38.5 12.1 38.2 16.2C38 19.5 37.4 21 36.5 21C35.8 21 35 20.2 34.8 19.3C34.4 17.2 25.2 15 20.7 15.9C18.4 16.4 17.4 17.2 17.2 18.8C17 20.4 16.2 21 14.5 21C12.4 21 12.1 20.5 11.8 16.2C11.5 12.1 11.2 11.5 9.2 11.2C7.5 10.9 6.7 11.4 6.3 12.8ZM10 24C10 30.7 9.6 35 9 35C8.4 35 8 30.7 8 24C8 17.3 8.4 13 9 13C9.6 13 10 17.3 10 24ZM42 24C42 30.7 41.6 35 41 35C40.4 35 40 30.7 40 24C40 17.3 40.4 13 41 13C41.6 13 42 17.3 42 24ZM6 24C6 28 5.6 31 5 31C4.4 31 4 28 4 24C4 20 4.4 17 5 17C5.6 17 6 20 6 24ZM46 24C46 28 45.6 31 45 31C44.4 31 44 28 44 24C44 20 44.4 17 45 17C45.6 17 46 20 46 24ZM17 24C17 24.5 15.9 25 14.5 25C13.1 25 12 24.5 12 24C12 23.4 13.1 23 14.5 23C15.9 23 17 23.4 17 24ZM38 24C38 24.5 37.3 25 36.5 25C35.7 25 35 24.5 35 24C35 23.4 35.7 23 36.5 23C37.3 23 38 23.4 38 24Z" fill="#C3073F"/>
</svg>
